<svg id="Layer_1" data-name="Layer 1" xmlns="http://www.w3.org/2000/svg" viewBox="0 0 217.36 212.34"><defs><style>.cls-1{fill:none;stroke:#393e46;stroke-width:6px;}.cls-1,.cls-3{stroke-miterlimit:10;}.cls-2{fill:#393e46;}.cls-3{fill:#ed8115;stroke:#ed8115;}</style></defs><title>logo_small_fat</title><g id="Outer_circle" data-name="Outer circle"><path class="cls-1" d="M230.64,138.46a103.17,103.17,0,0,1-205.28,0" transform="translate(-19.32 -21.83)"/><path class="cls-1" d="M25.5,116.24a103.17,103.17,0,0,1,205,0" transform="translate(-19.32 -21.83)"/><circle class="cls-2" cx="5.52" cy="106.17" r="5.52"/><circle class="cls-2" cx="211.84" cy="106.17" r="5.52"/></g><g id="Springkasteel"><path class="cls-3" d="M96.84,122.53c20.82-13.54,41.43-13.56,62.23,0V118c0-.41-.24-.52-.59-.49-1.4.11-1.5-.78-1.5-1.85,0-4.75,0-9.49,0-14.24,0-.77,0-1.25-1-1.37s-1.08-.89-.4-1.91c2.2-3.34,4.43-6.67,6.65-10,1-1.56,2-3.14,3.13-4.66a4.18,4.18,0,0,0,.79-2.67c0-3.83,0-7.66,0-11.49,0-1.67.52-2,2.1-1.39l9.1,3.57c.53.21,1.1.35,1.12,1.09s-.59,1-1.15,1.21c-2.67,1-5.33,2.12-8,3.12a1.52,1.52,0,0,0-1.16,1.57,9.71,9.71,0,0,0,2,6.88c2.94,4.1,5.64,8.37,8.44,12.57.87,1.31.83,1.57-.57,2.2-.67.31-.39.81-.4,1.22q0,7.24,0,14.5c0,.92-.09,1.68-1.28,1.65-.73,0-.54.53-.55.92,0,2.7,0,5.4,0,8.1q0,15.67,0,31.34c0,1,.07,1.44,1.26,1.48a4.78,4.78,0,0,1,4.5,4.6c.11,1.84,0,3.58-1.48,5-.34.32-.22.52,0,.85,2.06,2.7,2.07,5.28,0,8.08-.27.36-.26.54,0,.84,1.48,1.52,1.57,3.43,1.37,5.37a4.9,4.9,0,0,1-4.34,4.23c-.38,0-.78,0-1.17,0q-47.93,0-95.86,0a5.39,5.39,0,0,1-4.36-1.62,6.11,6.11,0,0,1-.13-7.6c.48-.59.62-.88,0-1.55a6,6,0,0,1-.1-7.39c.53-.64.63-1,0-1.67a5.85,5.85,0,0,1-.78-6,4.58,4.58,0,0,1,4.52-3.13c.57,0,.79-.23.74-.77,0-.22,0-.44,0-.65q0-19.53,0-39c0-.79.07-1.44-1.1-1.37-1,.06-1-.76-1-1.5,0-4.7,0-9.4,0-14.1,0-.91.14-1.65-1.2-1.89-1.07-.2-.7-1.17-.22-1.88,2.7-4.06,5.27-8.21,8.15-12.14a11.32,11.32,0,0,0,2.42-8c-.21-2.9,0-5.83,0-8.74,0-1.57.5-1.94,1.91-1.39,3.12,1.19,6.24,2.43,9.36,3.64.55.21,1.08.46,1.08,1.14s-.56.91-1.11,1.12C95.64,74.87,92.9,76,90.13,77c-.72.27-1.1.64-1,1.43a.76.76,0,0,1,0,.26,8.91,8.91,0,0,0,2,6.63c2.94,4.1,5.64,8.37,8.44,12.57.93,1.4.93,1.45-.56,2.28-.55.31-.33.76-.33,1.14q0,7.19,0,14.37c0,1,0,1.9-1.37,1.85-.44,0-.46.31-.46.63Zm19.65-6.74a.5.5,0,0,0-.53.18,4.2,4.2,0,0,0-.51,0A44.74,44.74,0,0,0,95.54,126.7c-9.11,8.6-12.94,19.45-13.42,31.71,0,.8.3.92,1,.92,3.09,0,6.18,0,9.27,0,2.28,0,2.28,0,2.54-2.31,0-.52.1-1,.16-1.56,1.2-9.37,5.32-17.07,13.25-22.41,8.09-5.45,17.07-7,26.57-5.19,8.66,1.63,15.74,5.9,20.76,13.28a33,33,0,0,1,5.41,17.07c0,.62,0,1.16.92,1.14,3.61-.06,7.23,0,10.84,0,.75,0,1-.22.94-1a57,57,0,0,0-.69-7.14c-1.9-11.3-7-20.75-16.37-27.53C144.57,114.89,131,112.75,116.49,115.79Zm11.56,13.39a28.85,28.85,0,0,0-5.34.41,42,42,0,0,0-4.7,1,29,29,0,0,0-21.14,27.42c0,.9.06,1.38,1.14,1.28a20.87,20.87,0,0,1,3.26,0c.82.06,1-.25,1.07-1a4.65,4.65,0,0,1,9.24-.11c.11,1,.53,1.14,1.39,1.13q14.88,0,29.77,0c1.08,0,1.46-.23,1.61-1.35a4.47,4.47,0,0,1,4.27-3.89,4.82,4.82,0,0,1,4.78,3.14c.28.68-.25,1.73.68,2a8.28,8.28,0,0,0,2.34.06c.56,0,1.13,0,1.69,0,.73.06,1-.18.95-.94-.38-6.88-2.33-13.2-6.87-18.5C145.87,132.49,137.58,129.4,128.05,129.18ZM128,161.36h0c-5,0-10,0-15,0-1,0-1.33.23-1.33,1.29q.07,11.22,0,22.44c0,1.1.39,1.28,1.35,1.28q14.94,0,29.89,0c1,0,1.32-.26,1.31-1.31q-.06-11.22,0-22.44c0-1.11-.41-1.26-1.35-1.25C137.92,161.38,133,161.36,128,161.36ZM88.3,115.51c2.43,0,4.87,0,7.3,0,.76,0,1.06-.15,1.05-1,0-4.48,0-9,0-13.43,0-.63-.09-.94-.83-.93q-7.44,0-14.86,0c-.76,0-1,.27-1,1,0,4.43,0,8.86,0,13.3,0,.9.34,1.08,1.14,1.06C83.52,115.49,85.91,115.51,88.3,115.51Zm79,0c2.43,0,4.87,0,7.31,0,.75,0,1.08-.17,1.08-1q-.06-6.66,0-13.31c0-.81-.25-1-1-1q-7.31,0-14.62,0c-.72,0-1,.18-1,.94,0,4.48,0,9,0,13.44,0,.88.35,1,1.08,1C162.48,115.49,164.87,115.51,167.27,115.51ZM82.08,144.66a5,5,0,0,0,.38-.6,43.2,43.2,0,0,1,11.85-18.91,1.41,1.41,0,0,0,.5-1.14c0-1.87,0-3.74,0-5.61,0-.7-.22-.89-.89-.88q-5.43,0-10.84,0c-.82,0-1,.27-1,1C82.09,127.16,82.08,135.77,82.08,144.66Zm91.57-.14a5.54,5.54,0,0,0,.14-.75c0-8.44,0-16.88,0-25.32,0-.76-.28-.94-1-.93q-5.42,0-10.83,0c-.67,0-.92.17-.9.87.05,1.69.06,3.39,0,5.09a2.43,2.43,0,0,0,.87,2,42.23,42.23,0,0,1,8.55,11.43A63.27,63.27,0,0,1,173.65,144.52Zm-8.13,32.8c3.65,0,7.3,0,10.95,0,2,0,3.1-1.3,3.1-3.54s-1.14-3.43-3.07-3.44c-7.3,0-14.6,0-21.91,0-.86,0-1,.34-1,1.08,0,1.56.07,3.13,0,4.69,0,1,.22,1.28,1.22,1.26C158.39,177.28,162,177.32,165.52,177.32Zm-75.3,0c3.61,0,7.22,0,10.83,0,1,0,1.33-.2,1.27-1.22a43.54,43.54,0,0,1,0-4.57c.05-1-.23-1.26-1.23-1.25-7,0-14.09,0-21.14,0-2.4,0-3.48,1.12-3.47,3.54s1.1,3.44,3.43,3.44C83.35,177.33,86.78,177.32,90.22,177.32Zm75.5,2c-3.61,0-7.23,0-10.83,0-1.07,0-1.34.32-1.29,1.32a36.29,36.29,0,0,1,0,4.3c-.07,1.09.27,1.4,1.37,1.39,7-.05,13.92,0,20.88,0a7.48,7.48,0,0,0,1.42-.1c1.61-.32,2.47-1.85,2.28-4a2.77,2.77,0,0,0-2.87-2.87Zm-.13-11.06c3.66,0,7.31,0,11,0,2,0,3-1.28,3-3.48s-1.05-3.43-3-3.43c-7.31,0-14.62,0-21.93,0-.72,0-1,.2-1,1,0,1.6.06,3.22,0,4.83,0,.89.22,1.19,1.15,1.18C158.37,168.26,162,168.29,165.59,168.29Zm-75.23,0c3.62,0,7.23,0,10.84,0,.85,0,1.14-.25,1.1-1.11-.06-1.56-.06-3.14,0-4.7,0-.92-.28-1.17-1.18-1.16-7.09,0-14.19,0-21.28,0-2.33,0-3.37,1.11-3.37,3.5s1.08,3.42,3.44,3.43C83.4,168.3,86.88,168.29,90.36,168.29Zm.13,11.05h0c-3.66,0-7.32,0-11,0-1.94,0-3,1.24-3,3.31,0,2.23.94,3.6,2.85,3.61,7.36.06,14.71,0,22.07,0,.68,0,.91-.25.9-.92,0-1.65-.06-3.31,0-5,0-.87-.28-1.12-1.12-1.11C97.63,179.36,94.06,179.34,90.49,179.34Zm19.2-7.25c0-4.3,0-8.61,0-12.91,0-1.84-1.07-3-2.66-3.08a2.74,2.74,0,0,0-2.76,3c0,1.52,0,3,0,4.57,0,7.13,0,14.26,0,21.39,0,1.05.3,1.39,1.32,1.3a15.29,15.29,0,0,1,2.87,0c1.09.1,1.29-.36,1.28-1.34C109.66,180.7,109.69,176.4,109.69,172.09Zm36.54,0c0,4.34,0,8.69,0,13,0,.89.22,1.24,1.16,1.17a29.54,29.54,0,0,1,3.26,0c.71,0,1-.18,1-.94,0-8.83,0-17.65,0-26.47a2.62,2.62,0,0,0-.76-2,2.56,2.56,0,0,0-2.89-.61,2.63,2.63,0,0,0-1.72,2.66C146.24,163.35,146.23,167.74,146.23,172.13Zm-48.92-74L88.17,84.43c-3,4.42-5.82,8.71-8.67,13-.55.83.19.7.62.7,3.3,0,6.6,0,9.91,0Zm69.85,0c2.69,0,5.39,0,8.09,0,.71,0,1-.1.52-.84q-4.07-6.07-8.1-12.16c-.38-.57-.61-.6-1,0q-4,6.09-8.1,12.16c-.48.7-.26.85.49.85C161.76,98.14,164.46,98.15,167.16,98.15Zm7.57-25.48-6-2.35c-.4-.15-.54.09-.54.46,0,1.25,0,2.51,0,3.76,0,.45.13.65.62.46C170.66,74.26,172.5,73.55,174.73,72.67Zm-79,0-5.9-2.31c-.46-.19-.64,0-.64.48v3.64c0,.45.18.67.65.49Z" transform="translate(-19.32 -21.83)"/><path class="cls-3" d="M118.28,117.72c-.12.83-.77.94-1.43,1.09a37.1,37.1,0,0,0-14.79,6.85c-.44.34-.89.7-1.31,1.07s-1.15,1-1.79.26,0-1.33.53-1.84a36.79,36.79,0,0,1,7.14-4.78,41,41,0,0,1,9.91-3.57C117.61,116.55,118.32,116.94,118.28,117.72Z" transform="translate(-19.32 -21.83)"/><path class="cls-3" d="M140.78,174.23c0-2.26,0-4.52,0-6.78,0-.77.12-1.5,1-1.49s1,.78,1,1.52V181.3c0,.75-.12,1.5-1,1.48s-1-.76-1-1.51C140.79,178.92,140.78,176.57,140.78,174.23Z" transform="translate(-19.32 -21.83)"/><path class="cls-3" d="M83.49,107.33V111c0,.7-.26,1.24-1,1.26s-1-.51-1-1.22v-7.43c0-.72.32-1.21,1.06-1.19s1,.51,1,1.15c0,1.26,0,2.52,0,3.78Z" transform="translate(-19.32 -21.83)"/><path class="cls-3" d="M162.72,106.82v3.77c0,.65-.24,1.15-.92,1.19s-1.07-.48-1.08-1.17c0-2.52,0-5,0-7.55,0-.64.3-1.12,1-1.12s1,.44,1,1.11Z" transform="translate(-19.32 -21.83)"/></g></svg>