<svg id="Layer_1" data-name="Layer 1" xmlns="http://www.w3.org/2000/svg" viewBox="0 0 400 392.05"><defs><style>.cls-1{fill:none;stroke:#393e46;stroke-miterlimit:10;stroke-width:4px;}.cls-2{font-size:83.13px;font-family:Kidstar-Regular, Kidstar;letter-spacing:0.03em;}.cls-2,.cls-4{fill:#393e46;}.cls-3{fill:#c67114;}</style></defs><title>logo_jolafun</title><path class="cls-1" d="M443,269.67C433.18,367.59,350.52,444,250,444S66.82,367.59,57,269.67" transform="translate(-50 -53.97)"/><path class="cls-1" d="M57.23,227.89C68.21,131.14,150.32,56,250,56s181.79,75.17,192.77,171.92" transform="translate(-50 -53.97)"/><text class="cls-2" transform="translate(64 264.88)">JOLAFUN</text><g id="Springkasteel"><path class="cls-3" d="M211.5,163.24c25.72-16.73,51.19-16.75,76.89,0,0-1.77,0-3.67,0-5.57,0-.51-.29-.64-.73-.61-1.73.14-1.86-1-1.85-2.28,0-5.87,0-11.73,0-17.59,0-.95,0-1.55-1.26-1.69s-1.33-1.1-.5-2.37q4.1-6.19,8.23-12.36c1.28-1.92,2.52-3.87,3.87-5.75a5.25,5.25,0,0,0,1-3.3c0-4.73,0-9.46,0-14.2,0-2.06.65-2.48,2.6-1.72L311,100.23c.65.25,1.35.43,1.38,1.34s-.73,1.23-1.42,1.5c-3.3,1.3-6.59,2.62-9.92,3.85a1.89,1.89,0,0,0-1.42,1.94,12,12,0,0,0,2.5,8.51c3.64,5.06,7,10.34,10.43,15.53,1.08,1.62,1,1.93-.71,2.72-.82.38-.48,1-.48,1.5q0,9,0,17.91c0,1.14-.11,2.09-1.59,2-.9,0-.67.66-.67,1.15,0,3.33,0,6.67,0,10q0,19.36,0,38.73c0,1.19.08,1.77,1.56,1.82a5.92,5.92,0,0,1,5.55,5.69c.14,2.27-.06,4.42-1.83,6.11-.42.4-.26.65,0,1.05,2.55,3.34,2.55,6.53,0,10-.33.45-.32.67,0,1,1.84,1.88,2,4.24,1.7,6.64a6,6,0,0,1-5.35,5.22,14,14,0,0,1-1.45,0q-59.22,0-118.44,0a6.69,6.69,0,0,1-5.4-2,7.56,7.56,0,0,1-.16-9.39c.6-.73.77-1.09,0-1.91a7.47,7.47,0,0,1-.12-9.13c.66-.8.78-1.21.06-2.06-1.89-2.24-1.88-4.9-1-7.48a5.66,5.66,0,0,1,5.59-3.87c.7,0,1-.28.91-1,0-.27,0-.54,0-.81q0-24.12,0-48.25c0-1,.08-1.77-1.36-1.68-1.19.07-1.22-1-1.22-1.85,0-5.81,0-11.62,0-17.43,0-1.12.17-2-1.49-2.34-1.32-.24-.86-1.44-.27-2.32,3.34-5,6.52-10.14,10.08-15a14.1,14.1,0,0,0,3-9.83c-.27-3.58-.07-7.2-.05-10.8,0-1.95.61-2.39,2.36-1.72,3.86,1.48,7.7,3,11.56,4.5.68.26,1.34.56,1.33,1.41s-.69,1.12-1.36,1.38c-3.4,1.32-6.79,2.68-10.21,4-.89.34-1.36.79-1.2,1.76a.86.86,0,0,1,0,.32c-.42,3.1.62,5.66,2.44,8.2,3.63,5.06,7,10.34,10.42,15.53,1.15,1.73,1.15,1.8-.69,2.82-.68.38-.4.94-.41,1.41q0,8.86,0,17.75c0,1.21,0,2.34-1.69,2.29-.55,0-.57.38-.57.77Zm24.28-8.33a.61.61,0,0,0-.65.23,3.31,3.31,0,0,0-.64.06,55.29,55.29,0,0,0-24.6,13.19c-11.25,10.63-16,24-16.58,39.18,0,1,.38,1.14,1.22,1.14,3.82,0,7.64,0,11.46,0,2.82,0,2.82,0,3.13-2.85.07-.64.13-1.29.21-1.93,1.48-11.58,6.57-21.08,16.36-27.68,10-6.74,21.09-8.62,32.84-6.41,10.69,2,19.45,7.29,25.65,16.4,4.33,6.35,6.23,13.5,6.69,21.1,0,.76-.07,1.42,1.13,1.4,4.46-.07,8.93-.05,13.39,0,.93,0,1.2-.28,1.16-1.2a70.4,70.4,0,0,0-.85-8.82c-2.35-14-8.67-25.64-20.23-34C270.47,153.8,253.72,151.16,235.78,154.91Zm14.29,16.55a35.41,35.41,0,0,0-6.6.51,47.82,47.82,0,0,0-5.81,1.3,35.79,35.79,0,0,0-26.12,33.87c0,1.12.07,1.71,1.41,1.58a25.82,25.82,0,0,1,4,0c1,.06,1.23-.32,1.31-1.27a5.75,5.75,0,0,1,11.43-.13c.13,1.26.64,1.4,1.71,1.39q18.39,0,36.79,0c1.32,0,1.8-.29,2-1.68a5.51,5.51,0,0,1,5.27-4.8,6,6,0,0,1,5.92,3.88c.34.84-.31,2.14.83,2.5a10.3,10.3,0,0,0,2.89.06c.7,0,1.4-.05,2.1,0,.9.08,1.22-.22,1.17-1.16-.48-8.5-2.88-16.31-8.49-22.86C272.08,175.55,261.84,171.73,250.07,171.46ZM250,211.21h0c-6.18,0-12.36,0-18.54,0-1.24,0-1.65.28-1.64,1.59q.09,13.88,0,27.74c0,1.35.48,1.57,1.67,1.57q18.47-.06,36.93,0c1.26,0,1.63-.32,1.63-1.61q-.09-13.86,0-27.73c0-1.38-.5-1.56-1.67-1.55C262.25,211.24,256.13,211.21,250,211.21ZM201,154.57c3,0,6,0,9,0,.94,0,1.31-.2,1.3-1.24-.05-5.53,0-11.06,0-16.59,0-.77-.12-1.16-1-1.15q-9.18,0-18.36,0c-.93,0-1.18.34-1.17,1.22,0,5.48,0,11,0,16.44,0,1.11.42,1.33,1.41,1.31C195,154.54,198,154.57,201,154.57Zm97.57,0c3,0,6,0,9,0,.93,0,1.34-.21,1.33-1.24q-.06-8.24,0-16.46c0-1-.32-1.28-1.29-1.28q-9,.06-18.06,0c-.89,0-1.21.22-1.2,1.16,0,5.54.05,11.08,0,16.61,0,1.09.43,1.22,1.33,1.2C292.6,154.54,295.56,154.57,298.52,154.57Zm-105.26,36a4.85,4.85,0,0,0,.47-.73,53.56,53.56,0,0,1,14.64-23.38,1.78,1.78,0,0,0,.63-1.4c0-2.31-.05-4.62,0-6.94,0-.85-.27-1.09-1.1-1.08-4.47,0-8.93,0-13.39,0-1,0-1.27.33-1.27,1.29C193.27,169,193.26,179.6,193.26,190.58Zm113.14-.16a7.06,7.06,0,0,0,.17-.94c0-10.42,0-20.85,0-31.27,0-1-.35-1.17-1.22-1.16q-6.69,0-13.38,0c-.83,0-1.13.21-1.11,1.08.05,2.09.07,4.19,0,6.28a3,3,0,0,0,1.07,2.52,51.92,51.92,0,0,1,10.57,14.12A79.07,79.07,0,0,1,306.4,190.42Zm-10,40.51c4.51,0,9,0,13.53,0,2.51,0,3.83-1.6,3.82-4.36s-1.4-4.25-3.78-4.25c-9,0-18.05,0-27.07,0-1.07,0-1.24.43-1.22,1.34.05,1.93.08,3.87,0,5.8-.06,1.19.28,1.58,1.51,1.55C287.55,230.89,292,230.94,296.36,230.93Zm-93,0c4.46,0,8.92,0,13.38,0,1.17,0,1.64-.24,1.57-1.5a56,56,0,0,1,0-5.65c.06-1.19-.29-1.55-1.51-1.54-8.71,0-17.42,0-26.13,0-3,0-4.3,1.39-4.29,4.37s1.37,4.25,4.24,4.26C194.83,231,199.07,230.94,203.32,230.94Zm93.28,2.51c-4.46,0-8.92.05-13.38,0-1.31,0-1.66.39-1.59,1.63a45,45,0,0,1,0,5.32c-.08,1.34.34,1.72,1.69,1.71,8.6-.05,17.2,0,25.8,0a8.59,8.59,0,0,0,1.76-.12c2-.39,3.05-2.28,2.82-4.93-.2-2.25-1.48-3.55-3.56-3.55Zm-.15-13.67c4.52,0,9,0,13.55,0,2.43,0,3.7-1.58,3.7-4.29s-1.3-4.23-3.76-4.24c-9,0-18.06,0-27.1,0-.89,0-1.23.24-1.2,1.18.06,2,.08,4,0,6-.05,1.11.27,1.48,1.42,1.47C287.52,219.75,292,219.78,296.45,219.78Zm-92.95,0c4.46,0,8.92,0,13.39,0,1,0,1.4-.3,1.36-1.36q-.12-2.91,0-5.81c.06-1.14-.33-1.44-1.45-1.44-8.76,0-17.53,0-26.3,0-2.87,0-4.16,1.38-4.16,4.32s1.34,4.23,4.25,4.24Zm.15,13.66h0c-4.52,0-9,0-13.55,0-2.4,0-3.72,1.54-3.76,4.09,0,2.76,1.17,4.44,3.53,4.46,9.08.07,18.17,0,27.26.05.84,0,1.13-.31,1.11-1.14,0-2-.07-4.09,0-6.13,0-1.07-.33-1.38-1.37-1.37C212.47,233.46,208.06,233.44,203.65,233.44Zm23.73-9c0-5.32,0-10.64,0-16,0-2.26-1.32-3.75-3.28-3.8s-3.35,1.42-3.41,3.69c0,1.87,0,3.76,0,5.64,0,8.81,0,17.62,0,26.43,0,1.29.37,1.72,1.64,1.61a19.93,19.93,0,0,1,3.54,0c1.34.13,1.59-.44,1.58-1.65C227.34,235.12,227.37,229.8,227.38,224.48Zm45.15,0c0,5.37,0,10.74,0,16.11,0,1.11.27,1.54,1.43,1.45a38.7,38.7,0,0,1,4,0c.87,0,1.23-.23,1.23-1.17q0-16.35,0-32.7a3.26,3.26,0,0,0-.95-2.49,3.19,3.19,0,0,0-3.57-.75,3.25,3.25,0,0,0-2.12,3.29Zm-60.45-91.4-11.3-17c-3.64,5.47-7.19,10.77-10.7,16.08-.68,1,.23.87.76.87h21.24Zm86.3,0c3.33,0,6.67,0,10,0,.87,0,1.26-.12.64-1q-5-7.5-10-15c-.46-.7-.75-.73-1.23,0q-5,7.53-10,15c-.59.87-.32,1.06.61,1C291.71,133.1,295.05,133.12,298.38,133.12Zm9.36-31.48c-2.76-1.09-5.06-2-7.38-2.9-.5-.2-.67.1-.67.56,0,1.55,0,3.1,0,4.65,0,.55.15.8.75.56Zm-97.58,0-7.29-2.85c-.58-.23-.8,0-.8.59,0,1.5,0,3,0,4.51,0,.54.22.82.79.59Z" transform="translate(-50 -53.97)"/><path class="cls-3" d="M238,157.3c-.15,1-1,1.15-1.76,1.34A45.83,45.83,0,0,0,218,167.11c-.55.42-1.1.86-1.62,1.32-.68.6-1.42,1.22-2.21.32s-.06-1.65.66-2.27a45.09,45.09,0,0,1,8.81-5.91,51.39,51.39,0,0,1,12.25-4.41C237.17,155.85,238,156.33,238,157.3Z" transform="translate(-50 -53.97)"/><path class="cls-3" d="M265.79,227.12c0-2.79,0-5.59,0-8.38,0-.94.15-1.85,1.28-1.84s1.26,1,1.26,1.88q0,8.53,0,17.08c0,.92-.15,1.85-1.29,1.83s-1.24-.95-1.24-1.87C265.8,232.92,265.79,230,265.79,227.12Z" transform="translate(-50 -53.97)"/><path class="cls-3" d="M195,144.46V149c0,.86-.32,1.54-1.25,1.55s-1.28-.63-1.28-1.5v-9.18c0-.88.39-1.5,1.31-1.48s1.2.64,1.21,1.43c0,1.56,0,3.12,0,4.67Z" transform="translate(-50 -53.97)"/><path class="cls-3" d="M292.9,143.83c0,1.56,0,3.11,0,4.66,0,.8-.3,1.42-1.14,1.47s-1.32-.6-1.33-1.45q0-4.66,0-9.33c0-.79.37-1.38,1.23-1.38s1.23.54,1.23,1.37C292.9,140.72,292.89,142.28,292.9,143.83Z" transform="translate(-50 -53.97)"/></g><path class="cls-3" d="M175.45,336.7h1.2l1,5,.54,3h.05c.21-1,.43-2,.65-3l1.27-5h1.07l1.27,5c.22,1,.44,2,.66,3h.06c.18-1,.34-2,.52-3l1-5h1.12l-1.9,9.19h-1.4l-1.4-5.53c-.15-.72-.3-1.38-.44-2.09h0c-.15.71-.31,1.37-.46,2.09l-1.37,5.53H177.4Z" transform="translate(-50 -53.97)"/><path class="cls-3" d="M189.25,336.7h1.21l1,5,.54,3H192c.2-1,.42-2,.64-3l1.28-5H195l1.28,5c.22,1,.44,2,.66,3H197c.17-1,.34-2,.52-3l1-5h1.13l-1.9,9.19H196.3l-1.39-5.53c-.16-.72-.31-1.38-.44-2.09h-.06c-.14.71-.3,1.37-.46,2.09l-1.36,5.53H191.2Z" transform="translate(-50 -53.97)"/><path class="cls-3" d="M203.05,336.7h1.21l1,5c.17,1,.36,2,.53,3h.06c.2-1,.43-2,.65-3l1.27-5h1.06l1.28,5c.22,1,.44,2,.66,3h.06c.18-1,.34-2,.52-3l1-5h1.13l-1.9,9.19H210.1l-1.39-5.53c-.16-.72-.3-1.38-.44-2.09h-.06c-.14.71-.3,1.37-.46,2.09l-1.36,5.53H205Z" transform="translate(-50 -53.97)"/><path class="cls-3" d="M217,345.18a.83.83,0,1,1,1.66,0,.83.83,0,1,1-1.66,0Z" transform="translate(-50 -53.97)"/><path class="cls-3" d="M222.79,344.59l.83-.59a1.73,1.73,0,0,0,1.59,1c1,0,1.47-.56,1.47-1.95V336.7h1.17v6.48c0,1.59-.73,2.88-2.53,2.88A2.69,2.69,0,0,1,222.79,344.59Z" transform="translate(-50 -53.97)"/><path class="cls-3" d="M232.59,341.26c0-2.95,1.62-4.73,3.93-4.73s3.93,1.79,3.93,4.73-1.62,4.8-3.93,4.8S232.59,344.2,232.59,341.26Zm6.65,0c0-2.29-1.08-3.7-2.72-3.7s-2.72,1.41-2.72,3.7,1.08,3.77,2.72,3.77S239.24,343.55,239.24,341.26Z" transform="translate(-50 -53.97)"/><path class="cls-3" d="M245.22,336.7h1.17v8.2h4v1h-5.19Z" transform="translate(-50 -53.97)"/><path class="cls-3" d="M256.76,336.7h1.32l3.11,9.19H260l-1.6-5.14c-.33-1-.63-2-.92-3.09h-.06c-.28,1.06-.58,2.07-.91,3.09l-1.62,5.14h-1.19Zm-1.48,5.45h4.24v.94h-4.24Z" transform="translate(-50 -53.97)"/><path class="cls-3" d="M265.23,336.7h5.3v1H266.4v3.1h3.5v1h-3.5v4.11h-1.17Z" transform="translate(-50 -53.97)"/><path class="cls-3" d="M274.91,342.09V336.7h1.17v5.43c0,2.2.93,2.9,2.13,2.9s2.18-.7,2.18-2.9V336.7h1.12v5.39c0,3-1.42,4-3.3,4S274.91,345,274.91,342.09Z" transform="translate(-50 -53.97)"/><path class="cls-3" d="M286.77,336.7H288l3.33,5.77,1,1.91h.06c-.06-.93-.15-2-.15-2.93V336.7h1.11v9.19h-1.21l-3.33-5.79-1-1.89h-.05c.05.93.14,1.91.14,2.87v4.81h-1.11Z" transform="translate(-50 -53.97)"/><path class="cls-3" d="M298.29,345.18a.84.84,0,1,1,.83.88A.83.83,0,0,1,298.29,345.18Z" transform="translate(-50 -53.97)"/><path class="cls-3" d="M304.92,336.7h2.73c1.87,0,3.16.63,3.16,2.25a2,2,0,0,1-1.34,2V341a2.13,2.13,0,0,1,1.87,2.2c0,1.81-1.43,2.69-3.48,2.69h-2.94Zm2.53,3.91c1.56,0,2.21-.58,2.21-1.51s-.74-1.48-2.16-1.48h-1.41v3Zm.24,4.35c1.57,0,2.5-.57,2.5-1.8s-.9-1.66-2.5-1.66h-1.6V345Z" transform="translate(-50 -53.97)"/><path class="cls-3" d="M316,336.7h5.3v1h-4.13v2.88h3.48v1h-3.48v3.34h4.27v1H316Z" transform="translate(-50 -53.97)"/><circle class="cls-4" cx="5.99" cy="196.03" r="5.99"/><circle class="cls-4" cx="394.01" cy="196.03" r="5.99"/></svg>